<svg xmlns="http://www.w3.org/2000/svg" viewBox="0 0 50 50" class="contribute__icon">
  <g id="Page-1" fill="none" fill-rule="evenodd">
    <g id="Home" fill="currentColor">
      <g id="Suggest-a-plugin">
        <g id="icon">
          <path class="contribute__iconGrid" id="grid-plugin" d="M1.47 0H20.59c.812 0 1.47.658 1.47 1.47V20.59c0 .812-.658 1.47-1.47 1.47H1.47C.66 22.06 0 21.4 0 20.59V1.47C0 .66.658 0 1.47 0zm1.47 2.94V19.12H19.12V2.94H2.94zm-1.47 25H20.59c.812 0 1.47.66 1.47 1.472V48.53c0 .812-.658 1.47-1.47 1.47H1.47C.66 50 0 49.342 0 48.53V29.41c0-.812.658-1.47 1.47-1.47zm1.47 19.12H19.12V30.88H2.94V47.06zM29.413 0H48.53C49.34 0 50 .658 50 1.47V20.59c0 .812-.658 1.47-1.47 1.47H29.41c-.812 0-1.47-.658-1.47-1.47V1.47C27.94.66 28.6 0 29.41 0zm1.47 19.118H47.06V2.94H30.88V19.12z"></path>
          <path class="contribute__iconAdd" id="added-plugin" d="M29.412 27.94H48.53c.812 0 1.47.66 1.47 1.472V48.53c0 .812-.658 1.47-1.47 1.47H29.41c-.812 0-1.47-.658-1.47-1.47V29.41c0-.812.658-1.47 1.47-1.47zm1.47 19.12H47.06V30.88H30.88V47.06zm9.56-9.56h2.205c.812 0 1.47.658 1.47 1.47 0 .813-.658 1.47-1.47 1.47H40.44v2.207c0 .812-.657 1.47-1.47 1.47-.812 0-1.47-.658-1.47-1.47V40.44h-2.206c-.812 0-1.47-.657-1.47-1.47 0-.812.658-1.47 1.47-1.47H37.5v-2.206c0-.812.658-1.47 1.47-1.47.813 0 1.47.658 1.47 1.47V37.5z"></path>
        </g>
      </g>
    </g>
  </g>
</svg>
