<svg xmlns="http://www.w3.org/2000/svg" width="45" height="50" viewBox="0 0 45 50">
  <path fill="currentColor" fill-rule="evenodd" d="M702.214286,60 L740.785714,60 C742.560915,60 744,61.4536209 744,63.2467532 L744,106.753247 C744,108.546379 742.560915,110 740.785714,110 L702.214286,110 C700.439085,110 699,108.546379 699,106.753247 L699,63.2467532 C699,61.4536209 700.439085,60 702.214286,60 Z M702.863636,62 C701.834378,62 701,62.8463658 701,63.890411 L701,106.109589 C701,107.153634 701.834378,108 702.863636,108 L740.136364,108 C741.165622,108 742,107.153634 742,106.109589 L742,63.890411 C742,62.8463658 741.165622,62 740.136364,62 L702.863636,62 Z M709.928571,74.2857143 L713.388883,74.2857143 C713.760962,74.2857143 714.063935,74.377323 714.297813,74.5605432 C714.531691,74.7437634 714.707097,74.9808683 714.824036,75.2718651 L720.245722,89.5306353 C720.426446,89.9940746 720.599194,90.5033113 720.763972,91.0583607 C720.928749,91.6134101 721.085552,92.1980893 721.234383,92.8124158 C721.478892,91.5729851 721.781865,90.4790692 722.143313,89.5306353 L727.549053,75.2718651 C727.644731,75.0239789 727.814821,74.7976515 728.05933,74.592876 C728.303838,74.3881005 728.606812,74.2857143 728.96826,74.2857143 L732.428571,74.2857143 L723.116027,97.6623377 L719.241116,97.6623377 L709.928571,74.2857143 Z" transform="translate(-699 -60)"/>
</svg>
