<?xml version="1.0" standalone="no"?>
<!DOCTYPE svg PUBLIC "-//W3C//DTD SVG 20010904//EN"
 "http://www.w3.org/TR/2001/REC-SVG-20010904/DTD/svg10.dtd">
<svg version="1.0" xmlns="http://www.w3.org/2000/svg"
 width="1000.000000pt" height="1000.000000pt" viewBox="0 0 1000.000000 1000.000000"
 preserveAspectRatio="xMidYMid meet">
<metadata>
Created by potrace 1.11, written by Peter Selinger 2001-2013
</metadata>
<g transform="translate(0.000000,1000.000000) scale(0.100000,-0.100000)"
fill="#000000" stroke="none">
<path d="M2590 7138 c0 -2 417 -1052 928 -2333 l927 -2330 390 -2 390 -3 922
2318 c507 1274 925 2325 929 2335 6 16 -16 17 -367 17 -289 -1 -383 -4 -412
-14 -60 -22 -113 -64 -151 -119 -24 -37 -200 -489 -594 -1532 -309 -814 -576
-1532 -595 -1595 -19 -63 -49 -176 -67 -250 -47 -201 -44 -195 -60 -130 -31
134 -114 411 -159 532 -206 558 -1117 2941 -1136 2970 -32 48 -71 84 -120 111
-39 21 -51 22 -432 25 -216 2 -393 1 -393 0z"/>
</g>
</svg>
